<mxfile host="drawio-plugin" modified="2024-06-10T06:17:54.173Z" agent="Mozilla/5.0 (Windows NT 10.0; Win64; x64) AppleWebKit/537.36 (KHTML, like Gecko) Chrome/111.0.0.0 Safari/537.36" etag="4mv8d6bf60Lt0i0iP7TS" version="22.1.22" type="embed">
  <diagram id="fkZelClXza1m87n1FrbR" name="AS-IS">
    <mxGraphModel dx="1177" dy="1003" grid="1" gridSize="10" guides="1" tooltips="1" connect="1" arrows="1" fold="1" page="1" pageScale="1" pageWidth="850" pageHeight="1100" math="0" shadow="0">
      <root>
        <mxCell id="0" />
        <mxCell id="1" parent="0" />
        <mxCell id="qOaw6NXk3qO5qKnHGYR5-35" value="" style="whiteSpace=wrap;html=1;fillColor=none;dashed=1;" vertex="1" parent="1">
          <mxGeometry x="440" y="272.48" width="280" height="240" as="geometry" />
        </mxCell>
        <mxCell id="qOaw6NXk3qO5qKnHGYR5-36" style="edgeStyle=none;rounded=0;orthogonalLoop=1;jettySize=auto;html=1;exitX=0.5;exitY=1;exitDx=0;exitDy=0;startArrow=classic;startFill=1;" edge="1" parent="1" source="qOaw6NXk3qO5qKnHGYR5-42" target="qOaw6NXk3qO5qKnHGYR5-65">
          <mxGeometry relative="1" as="geometry">
            <mxPoint x="580.0000000000002" y="392.1199999999999" as="sourcePoint" />
            <mxPoint x="580.3199999999999" y="461.97" as="targetPoint" />
          </mxGeometry>
        </mxCell>
        <mxCell id="qOaw6NXk3qO5qKnHGYR5-37" value="" style="dashed=0;outlineConnect=0;html=1;align=center;labelPosition=center;verticalLabelPosition=bottom;verticalAlign=top;shape=mxgraph.weblogos.github;aspect=fixed;" vertex="1" parent="1">
          <mxGeometry x="232.5" y="121.03999999999999" width="85" height="85" as="geometry" />
        </mxCell>
        <mxCell id="qOaw6NXk3qO5qKnHGYR5-38" style="edgeStyle=none;rounded=0;orthogonalLoop=1;jettySize=auto;html=1;startArrow=none;startFill=0;" edge="1" parent="1" source="qOaw6NXk3qO5qKnHGYR5-57" target="qOaw6NXk3qO5qKnHGYR5-37">
          <mxGeometry relative="1" as="geometry" />
        </mxCell>
        <mxCell id="qOaw6NXk3qO5qKnHGYR5-39" value="Users" style="strokeColor=#dddddd;shadow=1;strokeWidth=1;rounded=1;absoluteArcSize=1;arcSize=2;labelPosition=center;verticalLabelPosition=middle;align=center;verticalAlign=bottom;spacingLeft=0;fontColor=#999999;fontSize=12;whiteSpace=wrap;spacingBottom=2;aspect=fixed;" vertex="1" parent="1">
          <mxGeometry x="830" y="292.39" width="85" height="103.21" as="geometry" />
        </mxCell>
        <mxCell id="qOaw6NXk3qO5qKnHGYR5-40" value="" style="dashed=0;connectable=0;html=1;fillColor=#757575;strokeColor=none;shape=mxgraph.gcp2.users;part=1;" vertex="1" parent="qOaw6NXk3qO5qKnHGYR5-39">
          <mxGeometry x="0.5" width="50" height="31.5" relative="1" as="geometry">
            <mxPoint x="-25" y="19.25" as="offset" />
          </mxGeometry>
        </mxCell>
        <mxCell id="qOaw6NXk3qO5qKnHGYR5-41" value="Amazon ECR" style="outlineConnect=0;fontColor=#232F3E;gradientColor=none;strokeColor=#ffffff;fillColor=#232F3E;dashed=0;verticalLabelPosition=middle;verticalAlign=bottom;align=center;html=1;whiteSpace=wrap;fontSize=10;fontStyle=1;spacing=3;shape=mxgraph.aws4.productIcon;prIcon=mxgraph.aws4.ecr;aspect=fixed;" vertex="1" parent="1">
          <mxGeometry x="232.5" y="520" width="85" height="106.25" as="geometry" />
        </mxCell>
        <mxCell id="qOaw6NXk3qO5qKnHGYR5-42" value="" style="shape=image;verticalLabelPosition=bottom;labelBackgroundColor=#ffffff;verticalAlign=top;aspect=fixed;imageAspect=0;image=data:image/png,iVBORw0KGgoAAAANSUhEUgAAAuQAAAFLCAMAAACp2GnxAAAAUVBMVEVHcEw0Rk1jpDoAAAAvRTcvP0VTiDAQFxMnOC4kNCttsj85TVQDmsckuOsCjLgArNk5TlU2W2bD3uMXfpk7RksfxvUrbYAthJ4DnsUpn8KXu8QUxoe5AAAACnRSTlMA5en8osbDHX1PAjU1xAAAIABJREFUeNrsnQ23oiAQhreOCsS14Eio//+PLuBHVmIqqKjz7r1729NS7fb4NjMy479/IBAIBAKBQCAQCAQCgUAgEAgEAoFAIBAIBAKBQCAQCAQCgUAgEAgEAoFAIBAIBAKBQCAQCAQCgUAgEAgEAoFAIBAIBAKBQCAQCAQCgUAgEGia0E/B/xFo54riH4qActDOFTPKBnUh8J8E2j3kgwLIQQA5CLQLyK2xyskhJxgnGwhjMBbfkAuZPvuVi/NCjnBy21AJhoTfN+Sp4jxtfzQ3Tws5IpsSXnNOgHOvkMv8WcrymVc3U3WzVDdPCjnC11sQuoKd+4Sc8Wcp8qcU6VMwczMXZ4U8FMQrzAFRb5Bz+SxpRTblp4acBIS4wRySUIDcc6QS3YITnHMGyL0yntwCVAKUA+SHDVUgZAHIvTN+C1ZAOUB+dMaBcoD8+IwD5QD58Rm/3SD7BMhd6yrX0CG/AuUAuZuSW/BKgFaA/NDBCoTlALmrrnuA/Aq4AuTzhW+7EOzWAsgPnHVC7gmQOyq67UQRAAuQHzjrhNwTID94+RDKiJ4gZxXZdZNQzs4C+Y6M/ORWjmaqhjwvn6n6LnN1M69vnqSReS9ZJ+SeJJqpy5ojKYJ8g/BtVzpxGZGwuaKU8twi6Xe4EA6xkWtfRn5qK8dmDJbtu6L5+5tWM+LYOhO01GuMw3uHotvOdN4yIqELyR/kWD9ccBE+ue1O5NyQi34N3Sd+LPQGeXMYBvYWJfuD/LRlRG2TInv0q5BU5JbcMpWCysKyMPMHOWo/GzAYOVj5bJ/8BbmuoaTtj2c98nAIco+JZ/wKgAKifG9Z57lzzxryu7w/sqwoskyRrW4qfGVWQ57mua6D6x/V6MOqJF5BntVrqwXVTZ9ObgJyJnlglOPbLnXSMmIdrtxp9pDsfqf8cVd/lKJ4CFZDXgr5zGmZcv5MBX/monxy0UDO+CN7LdBrM+ERcmTGoMu0rCiPwcjByuc7OVOg8nvBZMW7YlbxXkNOFeTsHXLaQM4V5K8FBnLqEXJ9DDKepg3lgZTBottOFZ3aycOEvDLyMm0pp0HMJCa33YqAk4cGOWmMvEM5lA+hjHgkJ0eRMnJRprV4IPXyHRv5Oa08aCcnFwU5T9Mu5dvvbtxr1nne3DNsyLWR5y/IS3PFua13a+HbrnXCMmLQ4QrWkKcdlULvCsNg5GDlR3FypKMV2YU8zbWVbxuWR7edKwLIA4LcvLb8DXL9rJRtufGW3Hav812xLGTI32ornULilgFLsn/IE3DycCDXITlNP5Sbhgx0TCOvLjO7+BVvCTh5MJBH7wXEJmDZ0soXzTo717FaFvOz5Z4hO3n8lXe2ActWVr5k+RCvV6jE4OShQK4HAuRpr5VvdHZ/SSMnKwZGJ7PygJ0c9RRXGitnl6OVD/GqtcoIIA8b8moPyxZWTtateFwh9ww2XBE+IS97INcFFrpF/0SyLnRLBizJiZ2cy0dRM8tayFkHcllBzlrI5SNj7QL/Tt4Hecq2ST3J2syBlfuFPHv1eGZVy2b26vEs2x7Pqt3zo8ezu+Cu/rg45FJRflk9Xlky68RrpwCHyz0RwaT3S/2KNEn3GSMpnr+79W1Pq76QE+RmN+LquRNe3VcXPfN0sDIipsMjDWlmdDdf5rv5nVMhS4sUyPz1N99/mBM2Q1PkiBPkOl5Zval50fNAaH3ID2blhP4Y3Em5FjNf5rv9XXefWX6Z+9q/+f7j16jEy2jI817IebtLC6nPBYzNnF31kyz4xi26+/Df+pAfrIxIqqGenmcdzl7oAfIqHEI4iuPLhV6qw+miFMfRQq3OywK3xXMeK/fEQyMN9dZVMTTv0Pd9YnRSajnjWW8rpwrv3sPucsELvH3J8SBPDubklN4fRZ8eOu7uD3yNY4qs6F+nktKejSUNhIJy2xPeJ0Eu7ZAPKca7MvJtID+UleMKcstsTg25dainfU7iQ4rBK01w2xOOh7x/F6Ipr4yYHO01bHHOOq9JcvUJeZLgKIHc88vJ71lVy25K27qendWQp3na1MK7lwAykH8sqMYmNpCbwnnfNYP414L6YcZDjpm1htiE95xLmWX3SlkmOW+TDxZ7NCq38uG1SogRvvqB/FofwIg4Hnv4cJBn7K5PUN6FNGfiOX88RAN5ScunZGlK9VnN/ClF+hSshrxeUJgFevShehjRQF5f8q1e0LnEoYK8XZDpBXp9ZsYujoWc0CHIFeBZ9lWoL+5ZW9yhEQnCyPHvg2US5J19565HHzpauJLxCnJanYnXCNIWcqYgV6EBky3kmvcKcrPg/gY5bSC3XsezC7lZUNTbXMZDjqgt8ywFl5ktHlKfFy3mnqwq8gaS5XCZAvl76c/NzKPDOfkIyGlQkMe2oLyUVsIrP8+8Dnt2SQATNOaxJjzvZ00EJZB7ToM8KCcfCMofv1SYk66edp0nPq0Su0H+HWEgl8+Zw5QR8U6dvHcmxTjGa8g3N3IyMr4f/8TYczRFwMm3hdzEK2wW5Jk/I3fIOsnYAH885MjzYXiU3HO3Tm4q5TSfwfifx/EsswsY1/F7C0dDnnj/sMHg5NtCrsfaMjY3WIm3NXKrRy4AuQPlB7FyslsnNwPKWT6VcfWU/iaZR97hcYEc+08cjlFGxLt18n9Yb8Ji5UTG7x6vSTEbHrtBukAeLZAeE3DyTSGvLuPJpyedlHqaCpr4J2eJcMWF8uRkkIfm5Coqp+8By1jGPV2Qgvhn3CnxvC6RIR/ByvGOnby+Wm0+gXHm8aIrc7POaGKQP/5wIKumD+Dkq0COLl3Kf9cOM+bzInHYfwDgeDIoWSK2wuDkm4YrkWFW8HIU43fudWPWTCNP0FS7nRArkQU+eA5g5Tuuk8eXKYwX9bYsb9dbifwj47xBa/DR0WnLiHutrpC46fORo2IVWe2w9XcRROI/jyPu+8kHKcdnzT13WSdHuO1T5vkIxlUwXm8i93dFocS7K3ppmhgMoZOTlhH7nPxuh/zF7DTI6yahnLpDjnDcNN+zMTnnX8bb7k5/SRTxHazYt35PfAGR/7CcHAPyuk+zkIrspk/z1eNZPvO6x1Mq5hW+su3xfF9gWjZlt8ezu0Df7PZ4dhbU7Z7DkCOEiCa86dTksr94WPe9/RV/uuGNigZxj1eynYnLHMYnNzIPpLbknLmnQ7e+WKhbH/fAjfQ0rCjuDEJiL8TTV29b07esJ9JJlWoK0cxdufjsXZ4Z3uJZB81kXgcoTw5dRtTz0vq+zK7sFo0PZbqP0jbvUBFkW3fXsxDtcxIZtz6hMVz8+WLjOK4mYbVxB5c9JzoL2R1TJMRrLhe9RF7fp3lGfp33eNNN2e68Mz+BdmLl8dC8Q96ZY/g21FDfZxt4SJs7++8bnpPY/4tz+5jElm8hFOHdbVnFeyH8a/CcNnHPUWXkN7QdRm9G5GGHcmbAEu0E8sGphawZNFsz9u6bg8MLq99YZ1LtiDmJ7wvqP3Ue1TJaUbkzz/PSsrs2E59zFdXKOCLeR30Sv0WKH/Y65zXYKU8OnHvSPUjY79HSDl7auyQK3vkYMFF4hBXgC3zSJl4/8n+FELMONPuzHbiM2A5h3qVknvfw/VFX0UbOTECv5zQr/VsokiRek7efYfK8F2HNPqPDWjli5soo7WjN9CD6uIQFpSu8FzOzTjS5dugEudV7j5t7kgryVgdk/E94PaO5Vvnwd+gz9+Mk8nt2H+8Ccno4yL/7IcI18vnEzY6ZyMmsXEPOX5AXx2O8oCsZudfy4ZjwfvZKG5YzrTz4MiI253yO5eTFt5Gv8JHqddPKKFOd/zoSrwWW4HNP/O7kj6P5+KNgPvfR+i4f2gLaUQ/mcLBhrwWWBCDflPHKyKNQjdzpMoUOL8T2AXJMKz8a5F99P9xfE77/rNMSzo58MJejLfF62jOk3BMfHvLvbY+6ehRP+i9ZsXxoMfKRD+b0keL3cs4BlRFxtCrk+WqLrIwbIx9IO6ONm5edHswJckvpcv9Nzfi7PWBByCWbAWzOpAPjRe88FauRo2jjS6dgpwdzSw6Iz39IQGXEiH3NQRuGvHTwVfk9dXMM4wMX+vzt45+XBPobNHIUU+bnzZn7KY+csj+313L1mnoGk3uinq70j5NB72eDcsbKmcCVBi+RTz4w9H6xci7jbyX/ZteKzcjxRf3b/Yzc99oIHK0DuQXLuTOnQykjYvZ9DT/ycTLo8cnpLC8vZb05VkwBtuTNKlnOiVX0ZweV9+JjalDvm4lI3fWMNzRy4ualji/m6jVeCcTKcdPKrjBHtg1ajzZQabppJvtqmcvXBnAxGtj2wNCrmMwnPm3R9t7L7K/oXB4l7kU8ajsu3CmfPXEfudVpXI844jVeCSH3RLjbURM3XTGoD3KFKX9hSicAV5ql4r3hYcT61zHVruJTOL9nsvPP41mm/bwy8u8Ln5HX7ApDueu7g71+wl9XgzzxGq8EUEYkb+9r1R5jumOM971C8r8yzyV/b8URbBRwBvAPwl/txeWg9XPR1w7Ee1t+etd/HyJZ9n0tN93bH+ne57e/7XgN5tlGjh1DH+fYCXmNVza2coSjS38jb2xGY5om+UzqWQ2cM9HTfimY6cIprXhrvvlA/xrrB7Y6MAba22jV/mNBvX7i75fMmobQ/+yd7ZKrKBCGYxYFxhwLJ6mpGe//QldQEzWCIt18GDn7Y/fUJprk4bX7hW5kRRCXQxb6k764f/4/u5Xs76aCOuawzpC7zrKIbEQue6cJU/1wVyzfQaGvTC67unlVcjaMn64KrStbXi1uVq//mbx2Q1W0rGvurrxw6S1V1ZkaxitkGdsr57uhuLqGxM73cwUNyoPlnm2GlW0qFd5cg7/YFUJsLEgGfKXl6zeMjOyq3t998nLhOmXcJx0F/UAhbMQ2wcoEcNn8W2eJjR0qlueSsL2ysJ+Xdh+vFXTqSciXg4XCK+QENPwKIOWcbRuqidBd5mmH+ke1ocjZjmH1SwGfvGwVK7hDfoWdttFWwnVG+bgl228646ZrR1fdSz+1Emw/Ec6AATxaKGxQHm1Rs/IQx7TckhlaxKubgDtB3CjkX7ABLPEMOQd1yr9M7XmDDtknrq5ShFzPeLcM5KF6eX+SthwPF54hJ8AfKtZKODaHvEoe8ao7sRA/WOHQT/Yvz5BfgTPPWCvhVOZ5Tw5yE+OV8FTYWQDTwH1DvhhesK/DSbncgJsc5EbEu13kGY1ayBchZ94h59AfK1IpV0H5LSnKjYx7C1acMrQv90ABAnIGbK+YzzgPG6+IpILyFcZrP86Ko+K5hz8Qd0WcM4M0pJy9OeVVwoh3zorIPHxxBXjs6h/yAh7yKKNyKrdApeOvrCB+646V8ODXUngUvuKAvHCjPEavnKozsG5pUL4m490RWj56H7qZELFA/oUAOTvjFWTGPS11OqMAkPHFCnmU8Qov39aDKgcKAyLeB+Q+GjU7RiuLkPNjQL4rXiH/tYNgxysQkP9rmu+m+QuG+K32tC/L2VuJBnIKveS501/5Dxny7vTluzPlVfPdjSYQ472x4icmZMeAnMN/tF1BOTrkXBVXOEL+Kxlv6rpGoXwL4pWqXC495T3khByy2BMdctk/zl3K20ilFqVQcv4vBON3X1tWsCyIo0BeRAk5l4WgonKi/O/7W+0ZaeADlsqC8Zx+DOT0hNwu9ZSQ3x0hbxTkbbjSpp+Vb8S71Xwf27JAlgUhIOcQuQJG4vkVJeQy9RSzVU9byttopSssrsWj+f7zjPjAuL+NE+EhJxBPGAwLMVLIqWzNMpfyah/kZQkIuRXjovS4OQgBckvr/QpRoflBkHcuYn1zoPzfC/I2+fSLeM945nNBGSNuBZgo5ITcKOVvUbkV5UPiqYT82yviIRiPAfIFKecQt+EPcrXOuTRwcO/6r1QOlDd95ilqkGilsmS8LP1uDMKA3JauYk65dRsYhK22EUN+WZbyykrKG7kYJNeEKo+ID/G4581vBQII1u85o5xavwHBgLyIFnJVICSqPZTLNj/9kme3rF95RDyMjuNAbm9QXyfHhtjX48GXv0UNebfsWd9sKW8Bv//cOzb/JObOG7QqO8ZFEMadzWQKtOmrGDDne6YdfCGz1bK+d8hV2X55t9Py31ZIZefNn99B0L0SHo5x52VBDqah14IxUlzBpprrJ7PYoMXIMHq2h4HmBXeHClXbKa/uzyMe6urXr6HS39lPGYhxZ71zby4EMK4Yz6g4t9oOI9cELNVMvKWA3ieHroif3wCID4xnIQquKMYzvfAMOc5N0Jgh77bc1qr58ZSmNioZxo86/+QxOfGkj8k9I15V6qghkYUpKsQoEmOeIQdv+Ll3f5Y/yC9MFu5LgX50o6zF8Kf9j4f667cjfZqmcg/GdxA+2Cp5oEYfrkBixEAQmkv9heRBIL+QxSN7lo6EeDwU3430U6oAhFe3rmbZ395aaBhQVBQgJOchohWfkKs9t4ah9L1+4Q1R7lbtG33KS8J1+cDo3FCED8lJiGjFJ+RdWC7qpl4cjWL7RfcwvBPehyqiDNnjgyPAwINHK87zjEcP+YUrdpZI/l78Oxcp30t4dfsRpb+6fO24wscK9Bo6WqEYbxoZ5P2mWy3Py+PPI+HPUEVkgRuScQQdJaGjFR5EyD1D3iWflpQ3/gB/LnKW5BJ6wDfR8hqvYMyyve2z1LHZHh/Meb9f1mb880V4b46HWeWEJbJAiIGCXz/OHvwayh8PO8orL4D3xmFI5xBQymlYKecIIXlxSWbI9X1Lyht0vhXivYxnkXROdcsTedDU84qwxBXrabUau1xIyhuQ3LMCGz+DjEfzUEQ4RIqFFHKMNCNayolc5XxYBebTfVwV+Lj1y/itjMejF266SwNK+RVhGTclIR8oF1bpZ1OhjnvdyziJKrfh8GLKAgo5QXjP6CkXFpT/w0dcrv9Ephbw5xd7kfICYX2ruCQ35KqQeNg45n/oiJcsugciB49XvBgsHOHK/JIm5XaO+R8q4p6OkLBePINec/SxTatAuDC5pDi65nGlhcvyh4F4+YxU4vyWruCZGsVmHOO6iWWdYyux2zoeivKnMR6PNQ6bKDIEZ3L/ZQnCe6YQsigxt7BZACm/VQPiIirbEFTKUZZSdwYrHynkKhXJO5el3hizNH9gIv4jBsRzEvU3yOGTNVSHRcej0/ODXxIetBXzFnIZszTetPx2H1Z+JOIsdpEo4KUc02HBmFjFJe3B1fKnKLdi3gAkmz3iQq79xP8cRJByxI3l7HIK+cIU55mQMYs0zRt0yp+Et1fMUkDcjUhtLIsVlhOE1CJR+3Aes3SRebktNt8fmCvChegRZzSRbMYFEJ2wUhzKC4rw6Eg565xjrlzzeovTskfM7z+1GDW/yFN6AjIEQFCSTy3jFCMCStE07xHcEpzbirnqG/pEXGQssQ1tV4ScDYFyLeNO0dFBhLz70smz/UopVjlvLFZ8ZIzy0vCMpZfGYOSe8JTrGecfnXXOMM+efYZK1YfFRcxvN2kViknnuSxFwl1tROqJ8gLnQsXlYIOyPCv7xPCh7JbG0I/lT7uYKRvj1vWotaKMVbKcJSsKHMWbAM0+9Yy7WTn8crzBieRcdCbIo1d0iXqzgrkqGFKtcetaNX4egnAZjWc5YUl/WwQFE0DKDYw7BSvkcshBOes4HxRdkj60ketwf/5p7lU16vpcy/BkHKD0gHOeevKCsBsRdFWI4Nz6obLON85bQVeEKl+x28Ylu4GW0/aJPdi16Hqajz1CofyUrBVwfojviSGpIcgK/5Xj5BMHsg+XOW8FnaiNLaJX5AH20ehRnveDVn+ZK74PIwROemhiECBkKSjS7DyykI9Ab0OXCckLlE/hbv+zxZu1eB/s++FYrFDXkIVd0J4U/PIpgzIms9E54DPcW7hzxthxvxa8BRVeYMm4o01ZXD5tSFmXuM8Gk2QfJPBGk/I1XNgVIxp3joX45RwfNgiS/bE/Zrmu7Y9wY5ycv/nnPcqumD6FPeariDsalB+QdZ4D1qhYf/ZTq6BlHXHXiml2/uKnlCNEuJtT0GLLm32dQn4Ov7nntjyObuC82JTmBzo65RyfbCNu5oZyor9OsbUlqivjxflrn1KOrI6ckWKKelEwi3N3nLcLnEJ+2oie0KHdmVLWyxDOG79O+/DMPSOHx5nxM+s8bUQXyvHxAdjzlaZ9SD9i6T0BKV/ZbBLFLaYp5LLnhBChT8fkqo8uS3uuuW8Av+LmdBygdDTJrJP1dT5BKeeZ6M4FSptygJI1xJ+BQtQaJWkf0md/zZB8keEm0nanIGp50EIWmKrRNIX8WdgQ8PZpPlQ2J25PQWjlFUfMYfr7p/n7PCEXcUCedrwC0y8FQcyBiv8TtQ9jU/LEbR4YvYQWcwpV+Z/o7sNTySOUcmCbhUP140p1HehU8vhyz807ZrfdEVybolRtgVPJ47MRITEHRDzd3Yenkscq5RCYc9CG/jx5yE8lj8hGBMGcMtjeuOnau6eSx5p7Dsnezq+EEuAm5wnvPjyVPFIbcSzn1nt6wAlPu3j5VPLYpdyac04wDh1KeRv5qeRx554jyraAzlmBdKZzyruKTiWP2kZ8L1Zmmr3/stUw3nXTLl4+lTwZKR8XLpOuzaQcsgtlUSBfMQ0h7ztyyu+G2is5lS/vO3jSPdd+9QCllpCvVi3R9s274xE1774+x8BLo8jXwQZJAPBcjLsrlzmzUHLKyKQ1s+VJhLNXt69/bw+ih1wefC4Mx9dSUr5apMt/szwIVJ73JdSp0xmke0Cvx2I89qyTsuztyIcRaWtKzkn5/mpRbuScs3LpuIk5iVrIWf9qrlHg/O3d1RSmm7+acjRDIClnx4KcxY94uTBaFtQj2qjkVCJeLr+crD/h9a+eYa6BnLLhr7ONiPf3tknO36YvZFZyLCmPWsi1iA+cmpVcC2m5pSBzw8XNkFPyOo6cWt2cjHCo/QSE1Ct+JMhjzjp5boBUKR43KTnLSuMwxcqrFy/LfAXy52HnSzcnZ5Dx3lam4OIEBM2uiuMwHrN9uMKBCgOYVskpWYHUnKytXlxk3Aj5mPE3JV+dQeYpqPlsoJDzU8g9jFVIOzHXiCXNyy1Dp5dk/aWjGbIA+ZTxfO65bLg1/RTkms8Gm14dxkYkMTNuOfgOxnWrN2QLg0YlJ/p7W42jnj7LMrWaKQLdKeAouWfEWSdZPCd26QDZJSWnmdj6cmbcK/Dk7Wk+vpTcBDkZn+A8uwYttW9vnLh6xgVKD7GD2IgsGcaFOuVbrQLrgmVuYFzk/SoyI8bJscx4OaxETq5ugjwX+nlE38OSzkqhfC7xS82K+Pvn167EnlIes5DPSM5m9nO2ouRkysF0dYWTFZD4NBmYJYAsfwvJ3yA3Mj6DdPr285vLqW5x9ZkZ4P2I/Mw6Mf3xCQjZW9y8iDkfrTNOEV8wJwwgTTFayP44ybNswuYU8hmHs1CZmGaQurnxZ5svY1Ky8tlAxwFsxGjtw4nDXC5aae8m2kvJ6bp/wgwgjTBqL67ZF2pY1p9xOLs+F5Mgas08mT9nWGmc/aeUJyPkk3hB90O+xebPj5MvWyAGkCbRzBaHURdDCDJ/TMzegWamWGRpkufTeF6YngLwqdFpH2IJ+etxb1r4m2VgTyXnGxg3gJQLa8YnSm5kfKzEpr3nTOOwEL+MJ597xpt1jrU0N9zljHL+LuQmW21CI7e+uAbyPDcyPrLvjfUVbDmY2nVzn2wjRmsfjvc1mX9JNn54D0o+spFXNp+OHhj5kpBndMezx7zSxMpNH22cMow/xK6b+2Apj1fI6faFarKg5KTcOEUmF+L2F1+FXDCT/8c36fjkf6Qry0Rn7pnMppWRAUgs4OqVfCNHc6eDvfOVX9wgXyqFewZYhofM1J0Z5wuvb8bj4TEJ24gR7z7M/2/v3LZbV2EoajpwQcMv/P/XnsTpiblIINykhuy1novjNBMhCYS4PUV1gBZxZHs+qnTo3e8g53zuJ6XViDhIG7nHYTTzhxESDPkb1GNL40CO0thM07+HCpbEg4PdkDOMH38mR535o4hzr/60C9i0acSBTx+60ON3+hwHGzTZi9KUe4H6k5Cznx6lg0iXMUoMvj+1yvyzsefINW++cCF0wePDkke4UdeH2ZSjPoeghJydYdQMiTPG01S4P7XK/LNpxJGLl32HTx37qVsKeTAayClzjfy5w9k55MIqcnw1HnKX5kTzmbJe4q3MasqHLl62oSuFt6aW/GkKg2qz5DgJ9sg7+3McZZALjEchpW1uTzHf31x1WRgh6nxbckX1mlmNZy/kawq5PZeHTiGXogFnq4tUi/Fo0frr32TCNOLYdx8evCxdkGeWXFnVayXI3WnIg3TCux4vpIWbnLdlLkggTmvK6SMhzy25CnL3eshlR6caL6RFbYHbtTfXxJ1TphEHv/vwTy35NZAzu1zUKAi6GPLZYs/R7z48eHHvt+SiuxLOQy4GzBVL7jXJmQshny2NOHrrlE7I7UuzK/YV2RVprBx4pvV60jH2KyGfy5QP3zrF9mVX1t9lV7a3pBB9fQsgpJDnp1V8Y0vgCsjnij2Hv3Hfd+XJXXYTW+9mUHjPZpCvbz0lM7CdVhkB8pnSiOO3TolO6mko3dLkceQSUNeysbKPOws5T/mzdjUmWc34xZATDPkLvb/Qk+FY8/McfQe0tnzZCKd2FYuzK3z06dZylUov16hetHst5POkEWfovGyC/pbWo/j9f9tJGpvIBHxemDTnIBecLVscXvGNWqKBIJ8l9pyiYefhQrTrGG3hBquKb4op8lw1/KmztmzRhK86V5S9vyIKuRjyWdKIU3ReJn35G5WUxtfZkno6PeszImfJ/BJyhvKoamI35WvX1ctXQz6HKZ+j8/KRu255HPEFLbbcV2nBQBxfNryqkJkrTUpWniy73mzfdjXkc8Sek3Re9vorKbhL4oyy3Dd2VraVIrzOAAADUUlEQVQ6+acg5yg/lp5baLrJRUBjQj5DGnGWzsvxLXG1FEn0d/FssNumoTz2a6S7TagbcmPq94sntzzWb/4cEPLxHZavWTpiJze4Va6JizHxrIUOcroibUXh2IyLugFsdE1ckvYuM4lOaDKh2Z+9HvLxHZZ5ur7HlY5i5jhe7VO3JvZixAKGVUyErAnlrhPyvJFL/SiWstviMJCPTjkt8ygBmAUtubo5t7jxHOEnSdJ9LfP84xWC6zHO9LJPr25OKijyTSXHNcrw+dPJDQr52JTPxHhmZ8s+3M6nLQKtnDYJN2PONNGsxYdpv5/iEvB7O3tjkneqXMJfeCxUj0/vN/wLl7IPAfnIlE/FeNkYJ0XKrw2HNjm6euM0GU7WbNWTsbRWhtPeCOLeiMpKkDdsuQ/ilYn3+fN4N640aAzIFxo0+vyajHHGdb2R9tBq8tiN4cEGeXh7/52KDqI3y22z0bUWh5ktp9bLGXtX8s2YxNAgkC9uyEzit1uW6SlXNvAso8dW42N37sOrfTyTUqHCY9G8HEPyKJDfAqIBT2VNyHgH5aTfnlHn7jSdcqt9PKu2XPdy40I+nssyn6vSRblxmjy43HZc+HD7O0uex85r98uNbMn3X2cgzL/8Mq3a3blDZRPFKaxxZbNH7ImrhDyj3HW/nB8b8luQ/DUK4m6ZWLRu4SykmklS3Ur3jQ8PcnaFoZx6v9u6DA75PaE/QAT6TVMj/pPQDrIZt3R+koTmbqazJgTdGhLvePKut+O+m/T4wPdZHg3y/Utcyvm3n53wn7T0xqIQ7vslrm1rVmH4Zqzijn4J82KGWLZo7llwyperEo/5/eFUixPCWC4oef99gbyn5VPkyK8hpDCEnQPdqZJ9luSjt1X3H7p9uMlnCTv8Z/Oq6GDu98Fi04vHJAzp5DXSuzl5nwj6BM5NOHRnzOl/aOftjlIyvOvD09GWG/5YMsow2O8Q+9rj7RY9v/putP+hISDxsaTTvmNJdOo3pudwd26aNUcLp6rcbZhTPr69vNz+kGDHIQiCIAiCIAiCIAiCIAiCIAiCIAiCIAiCIAiCIAiCIAiCIAiCIAiCIAiCIAiCIAiCIAiCIAiCIAiCIAiCIAiCIAiCIAiCIAiCPlL/ATGc4OXFaLxzAAAAAElFTkSuQmCC;imageBorder=#000000;" vertex="1" parent="1">
          <mxGeometry x="479.9999999999999" y="313.6" width="136.37" height="61" as="geometry" />
        </mxCell>
        <mxCell id="qOaw6NXk3qO5qKnHGYR5-43" style="edgeStyle=orthogonalEdgeStyle;rounded=0;orthogonalLoop=1;jettySize=auto;html=1;entryX=0;entryY=0.5;entryDx=0;entryDy=0;endArrow=none;endFill=0;" edge="1" parent="1" source="qOaw6NXk3qO5qKnHGYR5-55" target="qOaw6NXk3qO5qKnHGYR5-54">
          <mxGeometry relative="1" as="geometry" />
        </mxCell>
        <mxCell id="qOaw6NXk3qO5qKnHGYR5-44" value="" style="aspect=fixed;html=1;points=[];align=center;image;fontSize=12;image=img/lib/mscae/Docker.svg;" vertex="1" parent="1">
          <mxGeometry y="357.64" width="85" height="69.7" as="geometry" />
        </mxCell>
        <mxCell id="qOaw6NXk3qO5qKnHGYR5-45" style="edgeStyle=none;rounded=0;orthogonalLoop=1;jettySize=auto;html=1;startArrow=none;startFill=0;exitX=0.5;exitY=1;exitDx=0;exitDy=0;" edge="1" parent="1" source="qOaw6NXk3qO5qKnHGYR5-59" target="qOaw6NXk3qO5qKnHGYR5-41">
          <mxGeometry relative="1" as="geometry">
            <mxPoint x="232.5" y="451.85510869565223" as="sourcePoint" />
          </mxGeometry>
        </mxCell>
        <mxCell id="qOaw6NXk3qO5qKnHGYR5-46" style="edgeStyle=none;rounded=0;orthogonalLoop=1;jettySize=auto;html=1;exitX=1;exitY=0.5;exitDx=0;exitDy=0;entryX=0;entryY=0.5;entryDx=0;entryDy=0;startArrow=none;startFill=0;" edge="1" parent="1" target="qOaw6NXk3qO5qKnHGYR5-35">
          <mxGeometry relative="1" as="geometry">
            <mxPoint x="317.5" y="392.49" as="sourcePoint" />
            <mxPoint x="414" y="392.48" as="targetPoint" />
          </mxGeometry>
        </mxCell>
        <mxCell id="qOaw6NXk3qO5qKnHGYR5-47" style="edgeStyle=none;rounded=0;orthogonalLoop=1;jettySize=auto;html=1;exitX=0;exitY=0.5;exitDx=0;exitDy=0;startArrow=none;startFill=0;" edge="1" parent="1" source="qOaw6NXk3qO5qKnHGYR5-64" target="qOaw6NXk3qO5qKnHGYR5-37">
          <mxGeometry relative="1" as="geometry">
            <mxPoint x="460" y="163.53500000000008" as="sourcePoint" />
          </mxGeometry>
        </mxCell>
        <mxCell id="qOaw6NXk3qO5qKnHGYR5-48" value="Polling properties" style="text;html=1;align=center;verticalAlign=middle;resizable=0;points=[];autosize=1;" vertex="1" parent="1">
          <mxGeometry x="340" y="140" width="110" height="20" as="geometry" />
        </mxCell>
        <mxCell id="qOaw6NXk3qO5qKnHGYR5-49" style="edgeStyle=orthogonalEdgeStyle;rounded=0;orthogonalLoop=1;jettySize=auto;html=1;entryX=0.5;entryY=0;entryDx=0;entryDy=0;" edge="1" parent="1" source="qOaw6NXk3qO5qKnHGYR5-50" target="qOaw6NXk3qO5qKnHGYR5-54">
          <mxGeometry relative="1" as="geometry" />
        </mxCell>
        <mxCell id="qOaw6NXk3qO5qKnHGYR5-50" value="Trigger" style="text;html=1;align=center;verticalAlign=middle;resizable=0;points=[];autosize=1;" vertex="1" parent="1">
          <mxGeometry x="245" y="245" width="60" height="30" as="geometry" />
        </mxCell>
        <mxCell id="qOaw6NXk3qO5qKnHGYR5-51" style="edgeStyle=orthogonalEdgeStyle;rounded=0;orthogonalLoop=1;jettySize=auto;html=1;" edge="1" parent="1" source="qOaw6NXk3qO5qKnHGYR5-37" target="qOaw6NXk3qO5qKnHGYR5-50">
          <mxGeometry relative="1" as="geometry">
            <mxPoint x="275" y="206.03999999999996" as="sourcePoint" />
            <mxPoint x="275" y="323.27" as="targetPoint" />
          </mxGeometry>
        </mxCell>
        <mxCell id="qOaw6NXk3qO5qKnHGYR5-52" value="Git submodule" style="text;html=1;align=center;verticalAlign=middle;resizable=0;points=[];autosize=1;" vertex="1" parent="1">
          <mxGeometry x="464.29" y="193.79" width="100" height="30" as="geometry" />
        </mxCell>
        <mxCell id="qOaw6NXk3qO5qKnHGYR5-53" value="Deploy" style="text;html=1;align=center;verticalAlign=middle;resizable=0;points=[];autosize=1;" vertex="1" parent="1">
          <mxGeometry x="347.5" y="370" width="50" height="20" as="geometry" />
        </mxCell>
        <mxCell id="qOaw6NXk3qO5qKnHGYR5-54" value="" style="shape=image;verticalLabelPosition=bottom;labelBackgroundColor=#ffffff;verticalAlign=top;aspect=fixed;imageAspect=0;image=https://velog.velcdn.com/images/choidongkuen/post/37a68999-1224-4ee1-adf1-24fd4f997865/image.webp;" vertex="1" parent="1">
          <mxGeometry x="223.98" y="352.98" width="102.03" height="79.01" as="geometry" />
        </mxCell>
        <mxCell id="qOaw6NXk3qO5qKnHGYR5-55" value="Build image" style="text;html=1;align=center;verticalAlign=middle;resizable=0;points=[];autosize=1;" vertex="1" parent="1">
          <mxGeometry x="110" y="382.48" width="80" height="20" as="geometry" />
        </mxCell>
        <mxCell id="qOaw6NXk3qO5qKnHGYR5-56" style="edgeStyle=orthogonalEdgeStyle;rounded=0;orthogonalLoop=1;jettySize=auto;html=1;entryX=0;entryY=0.5;entryDx=0;entryDy=0;endArrow=none;endFill=0;startArrow=classic;startFill=1;" edge="1" parent="1" source="qOaw6NXk3qO5qKnHGYR5-44" target="qOaw6NXk3qO5qKnHGYR5-55">
          <mxGeometry relative="1" as="geometry">
            <mxPoint x="117.5" y="392.41666666666674" as="sourcePoint" />
            <mxPoint x="223.98000000000002" y="392.4849999999999" as="targetPoint" />
          </mxGeometry>
        </mxCell>
        <mxCell id="qOaw6NXk3qO5qKnHGYR5-57" value="Push" style="text;html=1;align=center;verticalAlign=middle;resizable=0;points=[];autosize=1;" vertex="1" parent="1">
          <mxGeometry x="140" y="153.54" width="40" height="20" as="geometry" />
        </mxCell>
        <mxCell id="qOaw6NXk3qO5qKnHGYR5-58" style="edgeStyle=none;rounded=0;orthogonalLoop=1;jettySize=auto;html=1;startArrow=none;startFill=0;endArrow=none;endFill=0;" edge="1" parent="1" target="qOaw6NXk3qO5qKnHGYR5-57">
          <mxGeometry relative="1" as="geometry">
            <mxPoint x="95" y="163.53697674418595" as="sourcePoint" />
            <mxPoint x="232.5" y="163.53904494382027" as="targetPoint" />
          </mxGeometry>
        </mxCell>
        <mxCell id="qOaw6NXk3qO5qKnHGYR5-59" value="Push image" style="text;html=1;align=center;verticalAlign=middle;resizable=0;points=[];autosize=1;" vertex="1" parent="1">
          <mxGeometry x="235" y="461.71000000000004" width="80" height="20" as="geometry" />
        </mxCell>
        <mxCell id="qOaw6NXk3qO5qKnHGYR5-60" style="edgeStyle=none;rounded=0;orthogonalLoop=1;jettySize=auto;html=1;startArrow=none;startFill=0;exitX=0.5;exitY=1;exitDx=0;exitDy=0;endArrow=none;endFill=0;" edge="1" parent="1" source="qOaw6NXk3qO5qKnHGYR5-54" target="qOaw6NXk3qO5qKnHGYR5-59">
          <mxGeometry relative="1" as="geometry">
            <mxPoint x="274.9950000000001" y="431.99" as="sourcePoint" />
            <mxPoint x="274.99811793672734" y="520" as="targetPoint" />
          </mxGeometry>
        </mxCell>
        <mxCell id="qOaw6NXk3qO5qKnHGYR5-61" value="VPC" style="text;html=1;align=center;verticalAlign=middle;resizable=0;points=[];autosize=1;" vertex="1" parent="1">
          <mxGeometry x="560" y="244.64" width="40" height="20" as="geometry" />
        </mxCell>
        <mxCell id="qOaw6NXk3qO5qKnHGYR5-62" value="" style="shape=image;verticalLabelPosition=bottom;labelBackgroundColor=#ffffff;verticalAlign=top;aspect=fixed;imageAspect=0;image=https://encrypted-tbn0.gstatic.com/images?q=tbn:ANd9GcR1sXG46lBxw7ePGF8QDN3OMseIBWqxysk3spkptJy9NeRgy9foOvOj58iW-GAEY4y3VAY&amp;usqp=CAU;" vertex="1" parent="1">
          <mxGeometry y="138.98" width="85" height="49.11" as="geometry" />
        </mxCell>
        <mxCell id="qOaw6NXk3qO5qKnHGYR5-63" value="source code" style="text;html=1;align=center;verticalAlign=middle;resizable=0;points=[];autosize=1;" vertex="1" parent="1">
          <mxGeometry x="2.5" y="188.09" width="80" height="20" as="geometry" />
        </mxCell>
        <mxCell id="qOaw6NXk3qO5qKnHGYR5-64" value="" style="shape=image;verticalLabelPosition=bottom;labelBackgroundColor=#2E2E2E;verticalAlign=top;aspect=fixed;imageAspect=0;image=data:image/png,iVBORw0KGgoAAAANSUhEUgAAAgAAAAHACAMAAADjpiDhAAAABGdBTUEAALGPC/xhBQAAACBjSFJNAAB6JgAAgIQAAPoAAACA6AAAdTAAAOpgAAA6mAAAF3CculE8AAAAB3RJTUUH5QIbCy4Ed7qBuwAAAvpQTFRFAAAAAAAAAAAAAAAAAAAAAAAAAAAAAAAAAAAAAAAAAAAAAAAAAAAAAAAAAAAAAAAAAAAAAAAAAAAAAAAAAAAAAAAAAAAAAAAAAAAAAAAAAAAAAAAAAAAAAAAAAAAAAAAAAAAAAAAAAAAAAAAAAAAAAAAAAAAAAAAAAAAAAAAAAAAAAAAAAAAAAAAAAAAAAAAAAAAAAAAAAAAAAAAAAAAAAAAAAAAAAAAAAAAAAAAAAAAAAAAAAAAAAAAAAAAAAAAAAAAAAAAAAAAAAAAAAAAAAAAAAAAAAAAAAAAAAAAAAAAAAAAAAAAAAAAAAAAAAAAAAAAAAAAAAAAAAAAAAAAAAAAAAAAAAAAAAAAAAAAAAAAAAAAAAAAAAAAAAAAAAAAAAAAAAAAAAAAAAAAAAAAAAAAAAAAAAAAAAAAAAAAAAAAAAAAAAAAAAAAAAAAAAAAAAAAAAAAAAAAAAAAAAAAAAAAAAAAAAAAAAAAAAAAAAAAAAAAAAAAAAAAAAAAAAAAAAAAAAAAAAAAAAAAAAAAAAAAAAAAAAAAAAAAAAAAAAAAAAAAAAAAAAAAAAAAAAAAAAAAAAAAAAAAAAAAAAAAAAAAAAAAAAAAAAAAAAAAAAAAAAAAAAAAAAAAAAAAAAAAAAAAAAAAAAAAAAAAAAAAAAAAAAAAAAAAAAAAAAAAAAAAAAAAAAAAAAAAAAAAAAAAAAAAAAAAAAAAAAAAAAAAAAAAAAAAAAAAAAAAAAAAAAAAAAAAAAAAAAAAAAAAAAAAAAAAAAAAAAAAAAAAAAAAAAAAAAAAAAAAAAAAAAAAAAAAAAAAAAAAAAAAAAAAAAAAAAAAAAAAAAAAAAAAAAAAAAAAAAAAAAAAAAAAAAAAAAAAAAAAAAAAAAAAAAAAAAAAAAAAAAAAAAAAAAAAAAAAAAAAAAAAAAAAAAAAAAAAAAAAAAAAAAAAAAAAAAAAAAAAAAAAAAAAAAAAAAAAAAAAAAAAAAAAAAAAAAAAAAAAAAAAAAAAAAAAAAAAAdXxHkwAAAP10Uk5TAAECAwQFBgcICQoLDA0ODxAREhMUFRYXGBkaGxwdHh8gISIjJCUmJygpKissLS4vMDEyMzQ1Njc4OTo7PD0+P0BBQkNERUZHSElKS0xNTk9QUVJTVFVWV1hZWltcXV5fYGFiY2RlZmdoaWprbG1ub3BxcnN0dXZ3eHl6e3x9fn+BgoOEhYaHiYqLjI2Oj5CRkpOUlZaXmJmam5ydnp+goaKjpKWmp6ipqqusra6vsLGys7S1tre4ubq7vL2+v8DBwsPExcbHyMnKy8zNzs/Q0dLT1NXW19jZ2tvc3d7f4OHi4+Tl5ufo6err7O3u7/Dx8vP09fb3+Pn6+/z9/lLCkTkAAAABYktHRP1LCZPpAAAarUlEQVR42u2deXwURdrHe2ZycgRIuAkh3EgUEMQDDwRXSThyAAEkgICA7q6urq67rvKurrvv6uuqKEc4RLlBbkVXkStAOLIkXELCGSAhF3cIyUwmM/X5vMGLcCTT9VR1d1X38/s7nzw183y76zvd1dWKolH860f0GPOPZbt+KCMi58DO1f96vkdEqL+C4RhbaM8J0/aI3fqqSZ/9XK9G2DZuaTZu1j4XkSruzM/GRGLnuCR80ppCImEKv/1dY+wecwKGpV70ECnjubRzuA07yNb+qEVeInG863oEYxfhCRtzVOr+V+bUi03wLAB1/zb/ziPS59yMTthKWKKWlRITxLm+JfYSklZpLmKKeFLvx25Sx9F9j5eYJQf7OrCjlPN/t40eYp5sug8JoDz/Lyw1Uf+J+0u8LEiV2v8yVf8rCUi2Y1cpMuQKMVmuJWFX1adzATFdch/GvqpN3fkV5gOgYgXeIFab4fnEhCmYiKtE1CV8tceMAHi+xWvC6pJUREyZ0gl4ClCTyLXEpNnZGrvrO/bYq2YFwBmLd4ZV/AT4mJg2S/GCsO80zzYvAFdwkaDvJHrMCwAZi/31mU9N3H+yHPvrK35HzAzA8brYYR+JKDUzAPl9sMO+7gO6zAzAlRexwz7yhtvMAJS9hx32kTlm/hFAyGpcF+IjKabuP9mAVwJ8JM3cAGzD2wEIAKaG1N+LAFg6HTMRAEunEwKAACAACAACgAAgAAgAAoAAIAAIAAKAACAACAACgAAgAAgAAoAAIAAIAAKAACAACAACgAAgAAgAAoAAIAAIAAKAACAACAACgAAgAAgAAoAAIAAIAAKAACAACAACgACIlT19O5g6EQhAzSnJ3G/qLEYArJ00BAABQAAQAAQAAUAAEAAEAAFAABAABAABQAAQAAQAAUAAEAAEAAFAABAABAABQAAQAAQAAUAAEAAEAAFAABAABAABQAAQAA0B8F6+nlJskBUBcB3buHD6q9fzztw1/z2HTbIWAOfW/Dm6Ux3bT//dv/kDT394oAz7ZBkAzs/u1yrgpgK2el2f3+vBTlkCgGvrHqhzh3f1+oe9WuDGXpkeAPfxidVVsbX//IIXu2VuAMq+6eNXfZ0mr51GAkwNQMmiLjW+qb3OM0exXSYGoDw5wl5zpYCncrFfpgXA/Wldn6Uc0SdwFjApAFeTa6uo5ei3vwJbZkYALk9tpqqYX+w+vCJgQgCKp6rdqMRvQBb2zHQAuGY0V13OgSZoOgDcc+tS1HPEnEQTNBUA6vwPTdCsAKj1PzRBcwKg3v+qmiCuQjILADT+V9UEz2LnTAFAxdwQUFFH/2w0QRMAcHVmLWBVR78DaILSA3B5WjNwWTRB+QGA+F8VAgaiCcoNgCu5BVNhNEG5Aaj4rB5jZTRBmQGA+x+aoBkAuDytKYeXVfjFoQnKCUDxtAiFR9AE5QSA1f/QBOUGgN3/qhAw4BSaoGQAlMyqpfALmqBsAPDxPzRBWQHg5X9VCBiEJigPAK7kcIV3HP3QBGUBwPN5fYV/HAPxuUE5ACiZFaxoEUe/g2iCEgBweXpTRZugCcoAAH//QxOUCQAt/A9NUB4AtPG/qiZ4Bk1QYABKZgcr2gZNUGQAtPO/qia4H01QUACKp7VStI9fLJqgmAA4NfU/NEHRAfDOa6DoE8egHOypcACUzA5S9Iqj3w9ogoIBcHlGU0W/oAmKBkDx9FaKnkETFAsAZ3JLRd/4oQkKBIB3fqiid9AExQHgmo7+hyYoHgBXdPW/KrNAPJqgCADo7X9ogmIB4JzZUjEqaILGA2CE/1XxgFjcUdJYAK7NCVKMDJqgsQAY5X9ogmIAwOZ//s3b9OrVMdLBelX4MDbYIABY/M/eeeK8DSn796dumffbKH8mAqLRBA0CYEEY/B/OPnXx58m74tKp+VF2Fg+IQwKMAODanEBox9q8e/GW/zUj3M5igofQA3QH4Eoy1P8cD68uv/W/eVIeDUQTlAkABv+L33WHIXoyRtZFE5QHAOdM8PM/cXf+ReHJnhSIJigNAHD/G3iwuic7zicxmWAe9lk3AK59Cj1YA4afqH6YZeNroQnKAMCV5CbQM/WwIzWNM/+5EBYTPIAE6AJA8Qyw/w328WbgU8+zmGA8mqAeADD4n+/796fZTBA9QAcAFjTk7383co7JBOORAK0BKJ0Lvf8bMOy4mrGWjWN4wNgRfRg9QFMANPO/KiY4CU1QWAA09D80QQkAKNPS/6qY4EQ0QTEB0Nb/qpjgKDRBAQEo/Qzuf8foBlw6Fk1QOACuzAT7X+IR2hGjCQoHgC7+dyPZz7GYYAKaIG8AdPK/Kr8F0ASFAmB+I33870aK0ATFAaDdX8H+l3gMOurSZ1hMMCYTPYAfAIF2/fzvRgqYTDABTZAfAOAkHGUZN5qg7ACw7u7NZoIx6AEGAzDwAOvOzoVMJpiABBgJQMDQo+w7e18bw/D4saM/mqBxAPjFHuEx9oKJddEEpQQg8E/FXAaPJigpALbmH13lMvpTE4PQBGV0AFvT6aVcho8mKOuvgDoflnAZP5MJ+vXP8iAABiXoEz4EMJrgQQ8CYFBCP+FkgpNYCBh8GAEwKLbmU/iYYDaaoJQAKLZmnEywgMkEB+chAEalzkecTHA0yzlgwBEPAmCYCV5DE7QyAEqDqWiClgaAnwlOYLoekIcAoAkiAMak7hQ+JlgyiuUcMNCqJmg8AErwVE4mOAFNUEoABDHBIYcRAK3Syse232iC5gZgwNZBOplg/mg0QeEA8B+c5S0aGlDzH4V8zMkEk1jWCg866kEAuPd/SFZlmdOjaqMJWhOAhJ/Wfx4Z7WOrzwbTOHkAmqBQAAz85fmPo0l+Nf9li49FMMEBZxEArv63/9f1/7mxvq4KowmaDQD/hMwqz38UDdHLBEeiCQoBwE/+dyO6mWDhs0wm+IMHAeDjf1m3FNPPBCeiCRoPwIDbn/9VZYLeC9tWfPzeG6++N3P1+lw37GOdZDLBgWcRAK7+dyO+TfDtWWO7t23RICQoIKRheGTXpNlnQJ8rj8kEh+QhAFz9r8r0PNiHCQYE3nTjwBFYL2ZJAeAlwCVPM5igf+wxDwLA0/+qmGBSbep/9tTKHIgJ1kETNAyAhKxqK/o0wTstGhm2jv6OMZsJDj2MAHD1vyomONKPfuVY23eL0ASlAeCO/ncjObGAtYOhL+ejCcoBgH/8YR/7vxQmBAD+bfRx6m1lro4IYPgcccc9CADo/r/PqgATrEynQzqb4GALmCB/AOKzVJQ9MgrwIkgHYGtJNEG9ARigbv+/IyP96f93refpp+WTz7KY4KBcBICy//tUTtQQE1TqTXFSf8KzaIL6AeAXd0i1qBUmAM4BHbbT7y94dTiaoE4AqPG/KiY4EuABIy4ArgmORxPUB4D4LKraEBMMXAX4kNkT0AT1AKA/7f7PEBN83An4lCefDUYT1BwA1f53I2foTbDOesjHRBPUHIBK/wPMlQVxtPcFHM+Atpm+OozFBONPeBAAnv53Iwfupq3UrRBUiNEED3kQgJr9D/j+h12NaSuFr4FVYjPBxMNeBICn//2cigXUpYInAz/qCSYTjM1FALj6308pfYH+xvDgIuBnzWUywaF5CEC1Rwf4WsmlHvTlHv0B+mGLE/0ZLCfhpBcBuPM3kwUuf74Ffb17d4DLFY1DE+QPQDzD+78KAfU6rofXQxPkD0AMy/vfzgAKNlvGUJDNBONyEIDb/H8fy1GxWW8ASO4YNEGOAPgNYrtXtl13AEjxUDRBbgCw+B/YAcJXstVEE+QHQDzj+19BAHTeyFg0+1k0QT4AxLD2n1wI1/VnIJogVwD672U+FooH0Jd94hjzp85hM8F8BOBH/+Owp1rZX+gvBT9bwf6xi4cwmGDA4GwvAsDsfz+mYjH1c4INPuHxuYvG1WYxwcMeywPA7H8/ZW8H2sKRG7kUZjPBYZleiwMQw6f/pHAcbeXQ9/nsI3RiPIsJxudYGwAO/vfzHDCnHq0DhM/gs5cYmiAYAMdAfnvqHu5royUgLJnPjpLFg/0YTHDIKa9VAeDjf7/kg/r0i4Km8SGgaCyaIASAuEyeIzj5pJ16BCGzOO0niCYIACA6k+8QFgMuzbfgtKPkccubYJpx/vfrVDye/rtHEzQKAMeAA9xnvrM9bPQENJzJxwOuJFjbBCkB8I/P4j8Gz4b29BpQaYJlXKqfs7YJUgIQp8mTss4vOgMIQBPUHwDe/vdLSj8DrA4WxAQTzlgHAO7+d0MElzcBmGBLTiZ4hskEE/MtAoCj/37t5jv33p6A/UMbzhLBBIee9loBAE38r0ryX25J34Xg6ZxM8BmrmmCawf5XJWVfJdFfEgqZzec9Q9njWUxwuLwmqBqAfpnaD6boQTRBUQHon6EH44MgJpgsgAn6SWuCacb7HxsAiq3RbD4meDnewWCCiWe85gVAa/9jAkAYE8z0mBaAOL12yqsGgFo+lvDWRRPUFAA9/K9GAPrF+Njiq8V0TiY4jsUEB58xJwAxGV6DAXghPV4nEzw92mYxE/QJgD1mn35zW3UAXMyLdvgyQT4ecMlqJugLAP+4LB1HUy0AJGd4sE4mOKaWpUwwTRT/8wEAyXraR2PqzkET5A/AU5lEEABI5ggpTHDIGTMBoKP/+QSAnEQT1BkAe/Q+nWe0GgEgZ/vVvG7I1ngOJxOMYzHBYTlecwCgr/+pAEA/EzxvHRNME8X/1ACgwgQ/5WSCTPsIyWSCaaL4nyoAyGG9TPAYiwn6S2SCadX7HxEQAHLClwlGcDLBU0wmOCxfcgDs0Xs9QgJAzj7lywQ/5eMBF+PsDCY4PNcrMwAG+J9aAEjOMDlMMMsjMQCxBr0pTQ0Avk2wjhAmOEIOE0wTxf/UA6DCBGdUmqBr//dfzEqeOnPtht2FwOGwmeDQ07ICEJNOhAZAhQm+v/atmB4dWzYMrR/WumOXPr9bDnuQ2wImeDsA9n57PYIDQM762FTCFhJ20zQREBrx9H9KAKfkC7FmN8HbAPCPzTJuNGoBILnDqF8K7xf9HWAqOD/a5CZ4GwCxh4gEAJCsEfSNCUnaTG+HZjfBWwF4MpNIAYBvE7xTOnx0jt4Ex9YyswneAkB0OpEEAHI8HvAMQeOX6W0we7TdxCZ4EwC2pzI80gBAzv4GoOjBifR7jbOZ4Iiz0gDgH5tp8GioACC5iUGAjrQ9Tk+AiU0wTRT/AwAAMkHFNoJ+Ws4ea1oTrALAk1lEMgDI4eEAE6z9R71NMLFABgAM9j8QACATVJp8DPg1yGSCL4sPgOH+BwOA5AJM0BYBeOXA+UEMV4XDFnoFB8B4/wMCADPBUecBV4VHMdwZunuP4AAY739QAGDXBL8GDI7FBINeKRYagN9kEWkBIIcAJviICzC6Y4kBYALu2iQyAFGpRGIAyLEEejH/CjK8/Y+BPcDvz5fFBaDRUrfUAJDcJ6gbMxgyPE9qKPgU0PWQsAAETi4lcgNAjnWn7Uc72E2aOfANJedVCAqA7YF0IjsAme1o29FwAWiA+T3BADxdKigAtf/mlh0A73fU7wH1/y3oU7umg38LNr0sKAAt04jsALjfoe9H7xOgEe7pAj4FHBQUgJ7l0gPgiqZvxz3bQCMsGAsGYI2gALxFpAeg7F7AD/MNsCF+Ap4D/iEoAAvkB6C0GX07mi2GDXFREygArwgKwHb5AbgGuT8zBzbEr9tCAYgVFIA0awLg/y5siNu6IgCmACD4A70BGCkoAFtNAADgJk3jz2FDXBFuNgmcYoJfAZ3p29FiKWyIn4dBAZgmKACT5AfA2UO3n4HOv4NvCe8QFIBuV+S/EJRI346oLaAR5o6A9r9+nqAANN8kPQDuN+n70Rd2OzC1DRSAPlcFBcB/fJnsAHhTADeDQAMseR3af/s/XYICoLT/2iM5AID1AI2WgAa4PwIKQLNUr6gAOEadlR2AS3+gXhCSDRmf6wXwraCRgj4ken1JWNi/SyQHoGIu7crg4aDlAHPBS8JCP3eLC4AS9q3kAJCDj1M+G7IeMrx1HcAngJjjRGAAlLoby+UGgExtQNWPAYDBlW/uDu5/67VEaAAqB1gmNwAFg2h2eG+0m35s7o0Pgfsf+IpLcABsUSvLpAaALKxPsUj/RcD6vC3w/itPiLtRzC8Ph9rvXlMuNQCXktT348Fd9D9803vA+x+5iwgPgGJrs0FqAEjOfarvA31Gf0JOfwj+cHDTZRUSAKAoIZvKZQbAm9FVXY8aT6G+JOPeAj/+7e1XuYkUAAhggiwAEPdqVY+H+E926ul/9k5LRe7/TQAYb4JMAJDSeW19nwNqPUO/QQyL/7VZVk5kAcB4E2QDgJSu9fnYRv036TcKZPG/psuFPv5v3SjS1naDzAAQd3pvH/43jX71Q3ovBv9b7CIyAaAo9Qw1QVYACCl8sV717Qp6aAf1779K/7PB/W+l4Mf/HTaLjvzSKTMA5NLMJ5tWM/t3ffWCrtf/7J2WCN//2wEw1AQ5AEDImXlxd1i46ej4+i7AyW1LLwb/W1pO5APAUBPkAgDxZi95qfvNOzmEJ05Lgax9NLX/VQOAYmu3QW4ACKm4dOLbvw7s0eY6BaFdez03/0A+CGpz+191AFw3QbfcAFw/DVS4y13OK9lOV3l5BWw1ljvlPrj/tVtZTqQFQIn8yik7AOxxb+plbv+rAQBb1KoyywNgev+rAQDFfs/acosDkHGf2f2vJgAq57DvvZYGgMn/FrmI7AAoSv3NbusC4E7pyeB/K8qJCQAwwgRFAcAa/ucLAANMUBQArOF/vgC4boIuSwJgEf/zCYBib6+zCYoBQPrDiiX8zzcAitJAXxMUAQD3Vgb/a7u8nJgKACVyndNaAFjI/1QBoK8JCgDAFobzf5slsh3/vgHQ1wSNB4DJ/76Q7vhXAYCuJmg4ABlW8j+VAChK6Ba3NQBwb7vfSv6nGgCllV4maCwA7s0M/tdxiZuYFgDdTNBYAKzmf+oB0M0EDQWAxf+afCHn8a8WAMXeQRcTNBIAFv9rslDS4181AIoSpr0Jlh6MunPtPjs1f+OWe9sDcP9r84WLmB4ApdXX2ppgedb/RlbXg2bvZGn7iL0l/Y8SAFvUai1N0L3y8cDqizv6rtL07css/td2cTmxAgCKvYuGJuh8v33N+LV+97x238JeS/ofLQBammDRH31uwx/6nGbbmmc8Ykn/owZAsTVM0Yb2S2+E+K7uN0obAtzbWfxvmYtYBwCtTPDc5HpqivtN0mK/XTb/W+wmlgJAExN0TVG5x1/I3zTYc9+6/gcBQBMT3NFabfXWq7j/GrSw/4EAqDzr8TbBC73Vn4D6ZonkfwukP/4BACi2RilcD0P3G0Hqizte4joJVKQ+aAfP/62XuogVAag0wW94muCOjjS1G+xF/zMcAK4mWPInutdxT+B42k1hOP+3XVROrAoAVxPcTSlhjTL4+V9Pa/sfHACOJuj6IIiutN+b6H/GA6DYGnMywTMJtKV7FBjuf7ZIU/gfCwCKEsHFBL1bG9EWbrGKi/9tQf9jA8AWtYaDCbqTqQsHvY7+JwIAir0rBxMs/QN94eEcVgZksPjfMhP1nwEAxd6J3QQvAy7E9z3C3v9H0f/YAVBsTbaymuC5uvRlu6Wy+t+Ohxj8b4mLIAC/muB/GE2wEFC0JaMFMvlfBxP5HwcAmE3wJKBos2Xof6IAwGyCW/QHION+9D9+ACj2u75nefn8Lt0BYPK/+abrPzMAjCaYD6jYfDmD/+3sBfe/VoudBAHga4JFwfT17klB/xMKgEoTBBNw8S76evfthlbzpjCc/9suLCcIQDUm+CXUBC91A1wIOor+JxYADCZYMhpwKRi6Kgz9TysAFFvTbTATdM+mdrKQ92AXoNH/NARAUVp+C5sF9kTQVmq3E4ZaCvqflgDYotaCjhHqBSG2x0AzAPqfxgBATbDsn36US8Jeg83/D6D/aQuAYu8MMsFNnenKNNynu//NM3H/OQKg2JpBTPDaSwFURf4CoKxi18Nw/4tY5CQIgEoT/A4wCxyiejlfqxPof+ICADPBtwLVVwh8m367KPQ/3QBQ7N0AJnia4v3cvQ/SXwRg8b/Gy0zef84AVJrgevo5emMLtf++/Qp6vvY+hv6nHwCKrfl2agLKFzZQ98+bzqLuh2c3g/+1XOgkCIAOJlj6kaotQoImU/eDxf+UOr/ftNX0mcUdAFvUl9R9yn9dBQEhoy9T+9/WRxWM3oGYYP4HoT6vAE3Oofe/B7EdRhAQRW+CpQt9mGDk9Iu6+h+GZRZoATDBzY8FVH9FKOAeerPw7H7Ejr0wKOHrAdcD/qdLNVeFa0W9Tb9PLJP/YQwwQULSX+jkd6ej/7Uf6C8ueLfi+V82EyTk2oa/x0bcfN5uPeLDrZAVAOnof/KZ4HUZzN6VnNSl04+rxYOj7p8wLy0XtNgM/c/4WSA8FbZStPzKuaK8nG2bs/OKzl+F3YrzpD2K/ienCXKJeyv6n7wmyB70P7lNkDnpD+FXL7cJsgX9zwwmCI7nv+h/Ypng9y70P2ub4FdO9D80QfQ/CxNwt24miP4n5izQcocuBHj2PIb+J2Za6GGC6H/WNkHvtt74RYvrAfd+pfU5IB2Pf0ub4F48/gWfBSK0NMFK/3Pgdyy6CW7QbBZwb8Pzv5VNEP3P4iaI/icLAfdoYoLof/LMAq12ermf/9N7o/9JZIIbXeh/1jbBdU70PzRBfv73MH6lVjbBfXj8SzgLRPIyQW8G+p+Uab6xHP0PTZD5+j/6n7VNEP1PZgK6rK9A/7O2Ce5iMkHv3sfR/yQ3wU0MJujejv4nvwl+7UT/QxOE+d8j+PVZ2QTR/8wyC7Te7YX4Xx/0P7Ok2eZy9D80QSr/2/44fm1m8oDu61zof5YmoCuVCe7D4990s0Ab9Sbo3Yf+Z2UTRP+ztgmi/1ncBPfg+18sbYLof2aeBdqm+er//r7of6Y2wS01mqA7Ff3P7Cb4jRP9D00Q/c/CBHSr1gTR/6xtguh/VknjpSV3eI3Q8rvwm7FKmvzf2VtvDBRMaY7fi3USNnr1TS+JK/1+fCh+K1aKo3XSirxfbv4Vrvp9R5z+rRa/xneN+WBmWuriaePaNw7E70Pj/D9ztxZR3wwpwAAAACV0RVh0ZGF0ZTpjcmVhdGUAMjAyMS0wMi0yN1QxMTo0NjowNCswMDowME/Uc1QAAAAldEVYdGRhdGU6bW9kaWZ5ADIwMjEtMDItMjdUMTE6NDY6MDQrMDA6MDA+icvoAAAAAElFTkSuQmCC;" vertex="1" parent="1">
          <mxGeometry x="480" y="133.53" width="68.57" height="60" as="geometry" />
        </mxCell>
        <mxCell id="qOaw6NXk3qO5qKnHGYR5-65" value="" style="sketch=0;outlineConnect=0;fontColor=#232F3E;gradientColor=none;fillColor=#C925D1;strokeColor=none;dashed=0;verticalLabelPosition=bottom;verticalAlign=top;align=center;html=1;fontSize=12;fontStyle=0;aspect=fixed;pointerEvents=1;shape=mxgraph.aws4.rds_instance;" vertex="1" parent="1">
          <mxGeometry x="523.88" y="419.46000000000004" width="50.25" height="50.25" as="geometry" />
        </mxCell>
        <mxCell id="qOaw6NXk3qO5qKnHGYR5-66" value="" style="edgeStyle=none;rounded=0;orthogonalLoop=1;jettySize=auto;html=1;exitX=0;exitY=0.5;exitDx=0;exitDy=0;startArrow=classic;startFill=1;" edge="1" parent="1" source="qOaw6NXk3qO5qKnHGYR5-39" target="qOaw6NXk3qO5qKnHGYR5-68">
          <mxGeometry relative="1" as="geometry">
            <mxPoint x="956" y="332.12" as="sourcePoint" />
            <mxPoint x="876.0000000000005" y="331.8749999999999" as="targetPoint" />
          </mxGeometry>
        </mxCell>
        <mxCell id="qOaw6NXk3qO5qKnHGYR5-67" style="edgeStyle=orthogonalEdgeStyle;rounded=0;orthogonalLoop=1;jettySize=auto;html=1;exitX=0;exitY=0.5;exitDx=0;exitDy=0;exitPerimeter=0;entryX=1;entryY=0.5;entryDx=0;entryDy=0;" edge="1" parent="1" source="qOaw6NXk3qO5qKnHGYR5-68" target="qOaw6NXk3qO5qKnHGYR5-42">
          <mxGeometry relative="1" as="geometry" />
        </mxCell>
        <mxCell id="qOaw6NXk3qO5qKnHGYR5-68" value="" style="outlineConnect=0;dashed=0;verticalLabelPosition=bottom;verticalAlign=top;align=center;html=1;shape=mxgraph.aws3.application_load_balancer;fillColor=#F58534;gradientColor=none;" vertex="1" parent="1">
          <mxGeometry x="690" y="308.1" width="69" height="72" as="geometry" />
        </mxCell>
      </root>
    </mxGraphModel>
  </diagram>
</mxfile>
